<?xml version="1.0" encoding="UTF-8"?>
<svg xmlns="http://www.w3.org/2000/svg" version="1.1" viewBox="0 0 1080 1080">
  <defs>
    <style>
      .cls-1 {
        fill: #4d1630;
      }
    </style>
  </defs>
  <!-- Generator: Adobe Illustrator 28.7.1, SVG Export Plug-In . SVG Version: 1.2.0 Build 142)  -->
  <g>
    <g id="Layer_1">
      <g id="Layer_1-2" data-name="Layer_1">
        <g>
          <path class="cls-1" d="M126.9,237.1c0-4.4-3.6-8-8-8s-8,3.6-8,8,3.6,8,8,8,8-3.6,8-8Z"/>
          <path class="cls-1" d="M145,245c4.4,0,8-3.6,8-8s-3.6-8-8-8-8,3.6-8,8,3.6,8,8,8Z"/>
          <path class="cls-1" d="M171.1,245c4.4,0,8-3.6,8-8s-3.6-8-8-8-8,3.6-8,8,3.6,8,8,8Z"/>
          <path class="cls-1" d="M81,428.9c0-4.4-3.6-8-8-8s-8,3.6-8,8,3.6,8,8,8,8-3.6,8-8Z"/>
          <path class="cls-1" d="M99.2,436.8c4.4,0,8-3.6,8-8s-3.6-8-8-8-8,3.6-8,8,3.6,8,8,8Z"/>
          <path class="cls-1" d="M125.3,436.8c4.4,0,8-3.6,8-8s-3.6-8-8-8-8,3.6-8,8,3.6,8,8,8Z"/>
          <polygon class="cls-1" points="242.7 558.1 267.9 558.1 267.9 457.8 301.3 457.8 301.3 432.6 209.2 432.6 209.2 457.8 242.7 457.8 242.7 558.1"/>
          <path class="cls-1" d="M330.6,512.2h33.3v8.3h8.3v8.3h8.3v29.2h25.3v-46.1h-8.4v-16.5h8.4v-46.1h-8.4v-8.3h-8.3v-8.4h-83.7v125.5h25.2v-45.9h0ZM330.6,457.8h41.6v8.3h8.3v12.4h-8.3v8.3h-41.6v-29h0Z"/>
          <path class="cls-1" d="M503.8,499.4h-8.3v-25.1h-8.3v-25.1h-8.3v-16.7h-33.6v16.7h-8.4v25.1h-8.3v25.1h-8.3v25.1h-8.3v33.6h25.2v-25h49.9v25h25.3v-33.6h-8.4v-25.1h-.2ZM470.2,507.8h-16.5v-24.9h16.5v24.9Z"/>
          <polygon class="cls-1" points="543.3 491.3 551.5 491.3 551.5 508 559.8 508 559.8 524.7 568.2 524.7 568.2 541.4 576.6 541.4 576.6 558.1 610.1 558.1 610.1 432.6 584.9 432.6 584.9 499.4 576.7 499.4 576.7 482.7 568.4 482.7 568.4 466 560 466 560 449.3 551.7 449.3 551.7 432.6 518.1 432.6 518.1 558.1 543.3 558.1 543.3 491.3"/>
          <polygon class="cls-1" points="624.9 549.7 633.3 549.7 633.3 558.1 700.3 558.1 700.3 549.7 708.7 549.7 708.7 541.4 717.1 541.4 717.1 499.4 708.7 499.4 708.7 491 692 491 692 482.7 650.2 482.7 650.2 474.4 641.8 474.4 641.8 466.2 650.2 466.2 650.2 457.8 683.4 457.8 683.4 466.2 691.8 466.2 691.8 474.6 717.1 474.6 717.1 449.3 708.7 449.3 708.7 441 700.3 441 700.3 432.6 633.3 432.6 633.3 441 624.9 441 624.9 449.3 616.6 449.3 616.6 491.3 624.9 491.3 624.9 499.6 641.6 499.6 641.6 508 683.4 508 683.4 516.3 691.8 516.3 691.8 524.5 683.4 524.5 683.4 532.9 650.2 532.9 650.2 524.5 641.8 524.5 641.8 516.1 616.6 516.1 616.6 541.4 624.9 541.4 624.9 549.7"/>
          <rect class="cls-1" x="723" y="491" width="75.4" height="25.3"/>
          <polygon class="cls-1" points="71.5 693.1 96.7 693.1 96.7 643 155.2 643 155.2 617.7 96.7 617.7 96.7 592.8 163.5 592.8 163.5 567.5 71.5 567.5 71.5 693.1"/>
          <path class="cls-1" d="M267.6,584.3h-8.4v-8.3h-8.3v-8.4h-58.7v8.4h-8.3v8.3h-8.3v8.3h-8.3v75.4h8.3v8.3h8.3v8.3h8.3v8.3h58.7v-8.3h8.3v-8.3h8.4v-8.3h8.3v-75.4h-8.3v-8.3ZM250.6,651.1h-8.3v8.4h-8.3v8.3h-24.9v-8.3h-8.4v-8.4h-8.3v-41.5h8.3v-8.4h8.4v-8.3h24.9v8.3h8.3v8.4h8.3v41.5Z"/>
          <path class="cls-1" d="M374.8,575.9h-8.3v-8.4h-83.7v125.5h25.2v-45.9h33.3v8.3h8.3v8.3h8.3v29.2h25.3v-46.1h-8.4v-16.5h8.4v-46.1h-8.4v-8.3h0ZM357.9,613.5h-8.3v8.3h-41.6v-29h41.6v8.3h8.3v12.4Z"/>
          <polygon class="cls-1" points="474.1 584.3 465.8 584.3 465.8 609.3 457.4 609.3 457.4 634.4 440.9 634.4 440.9 609.3 432.6 609.3 432.6 584.3 424.2 584.3 424.2 567.5 390.6 567.5 390.6 693.1 415.8 693.1 415.8 643 424 643 424 668 432.4 668 432.4 693.1 466 693.1 466 668 474.3 668 474.3 643 482.5 643 482.5 693.1 507.7 693.1 507.7 567.5 474.1 567.5 474.1 584.3"/>
          <path class="cls-1" d="M605.7,634.4h-8.3v-25.1h-8.3v-25.1h-8.3v-16.7h-33.6v16.7h-8.4v25.1h-8.3v25.1h-8.3v25.1h-8.3v33.6h25.2v-25h49.9v25h25.3v-33.6h-8.4v-25.1h-.2ZM572.1,642.8h-16.5v-24.9h16.5v24.9Z"/>
          <polygon class="cls-1" points="696.4 567.5 604.4 567.5 604.4 592.8 637.8 592.8 637.8 693.1 663 693.1 663 592.8 696.4 592.8 696.4 567.5"/>
          <path class="cls-1" d="M210,279.4h-8.3v-8.3h-8.3v-8.4h-75.4v125.5h75.4v-8.3h8.3v-8.3h8.3v-8.3h8.4v-75.4h-8.4v-8.5ZM193.1,346.3h-8.3v8.4h-8.3v8.3h-33.3v-75h33.3v8.3h8.3v8.4h8.3v41.5h0Z"/>
          <rect class="cls-1" x="225.4" y="262.7" width="25.2" height="125.5"/>
          <polygon class="cls-1" points="358 279.4 349.7 279.4 349.7 271.1 341.3 271.1 341.3 262.7 282.6 262.7 282.6 271.1 274.3 271.1 274.3 279.4 265.9 279.4 265.9 287.8 257.6 287.8 257.6 363.2 265.9 363.2 265.9 371.5 274.3 371.5 274.3 379.9 282.6 379.9 282.6 388.2 333 388.2 333 379.9 341.1 379.9 341.1 388.2 366.4 388.2 366.4 321.2 316.1 321.2 316.1 346.5 332.8 346.5 332.8 354.7 324.4 354.7 324.4 363 299.6 363 299.6 354.7 291.2 354.7 291.2 346.3 282.8 346.3 282.8 304.7 291.2 304.7 291.2 296.3 299.6 296.3 299.6 288 324.4 288 324.4 296.3 332.8 296.3 332.8 304.7 341.1 304.7 341.1 313.1 366.4 313.1 366.4 287.8 358 287.8 358 279.4"/>
          <rect class="cls-1" x="374" y="262.7" width="25.2" height="125.5"/>
          <polygon class="cls-1" points="497.6 262.7 405.6 262.7 405.6 288 439 288 439 388.2 464.2 388.2 464.2 288 497.6 288 497.6 262.7"/>
          <path class="cls-1" d="M579.9,329.6h-8.3v-25.1h-8.3v-25.1h-8.3v-16.7h-33.6v16.7h-8.4v25.1h-8.3v25.1h-8.3v25.1h-8.3v33.6h25.2v-25h49.9v25h25.3v-33.6h-8.4v-25.1h-.2ZM546.4,337.9h-16.5v-24.9h16.5v24.9Z"/>
          <path class="cls-1" d="M708.5,695.4c-4.4,0-8,3.6-8,8s3.6,8,8,8,8-3.6,8-8-3.6-8-8-8Z"/>
          <path class="cls-1" d="M734.6,695.4c-4.4,0-8,3.6-8,8s3.6,8,8,8,8-3.6,8-8-3.6-8-8-8Z"/>
          <path class="cls-1" d="M768.7,703.3c0-4.4-3.6-8-8-8s-8,3.6-8,8,3.6,8,8,8,8-3.6,8-8Z"/>
          <path class="cls-1" d="M1025.1,675.1h-59.3v-266c0-4.7-3.8-8.5-8.5-8.5h-297.8v-86.1h281.4c.8,0,1.5-.1,2.2-.3,4-1,7-4.6,7-8.9V112.6c0-5.1-4.1-9.2-9.2-9.2h-418.7c-5.1,0-9.2,4.1-9.2,9.2v96.2H100.4c-4.7,0-8.5,3.8-8.5,8.5v183.3h-37.4c-4.7,0-8.5,3.8-8.5,8.5v353.7c0,4.7,3.8,8.5,8.5,8.5h112.6v194.7c0,5.8,4.7,10.5,10.5,10.5h331.9c5.8,0,10.5-4.7,10.5-10.5v-194.7h161.4v106.4c0,4.7,3.8,8.5,8.5,8.5h335.1c4.7,0,8.5-3.8,8.5-8.5v-194.1c0-4.7-3.8-8.5-8.5-8.5h0ZM579.6,163.1h5.4v-16.2h5.4v-10.8h5.4v-5.4h5.4v-5.4h5.4v-5.4h5.4v-5.4h5.4v-5.4h16.2v-3.4h43.2v3.4h16.2v5.4h5.4v5.4h5.4v5.4h5.4v5.4h5.4v5.4h5.4v10.8h5.4v16.2h5.4v86.4h5.4v5.4h5.4v5.4h21.6v-5.4h5.4v-5.4h5.4v-86.4h5.4v-16.2h5.4v-10.8h5.4v-5.4h5.4v-5.4h5.4v-5.4h5.4v-5.4h5.4v-5.4h16.2v-3.4h43.2v3.4h16.2v5.4h5.4v5.4h5.4v5.4h5.4v5.4h5.4v5.4h5.4v10.8h5.4v16.2h5.4v86.4h5.4v5.4h5.4v5.4h11.8v45.1c0,3.8-3.1,7-7,7h-15.7v-3.4h-16.2v-5.4h-5.4v-5.4h-5.4v-5.4h-5.4v-5.4h-5.4v-5.4h-5.4v-10.8h-5.4v-16.2h-5.4v-86.4h-5.4v-5.4h-5.4v-5.4h-21.6v5.4h-5.4v5.4h-5.4v86.4h-5.4v16.2h-5.4v10.8h-5.4v5.4h-5.4v5.4h-5.4v5.4h-5.4v5.4h-5.4v5.4h-16.2v3.4h-43.2v-3.4h-16.2v-5.4h-5.4v-5.4h-5.4v-5.4h-5.4v-5.4h-5.4v-5.4h-5.4v-10.8h-5.4v-16.2h-5.4v-86.4h-5.4v-5.4h-5.4v-5.4h-21.6v5.4h-5.4v5.4h-5.4v40.4h-54v-45.8h0ZM515.1,130.7h5.1v5.4h5.4v10.8h5.4v16.2h5.4v45.8h-21.3v-78.2h0ZM94.1,217.3c0-3.4,2.8-6.2,6.2-6.2h550.6c3.4,0,6.2,2.8,6.2,6.2v23.2c0,.2-.2.4-.3.6,0,.3.2.5.3.8v33.8h0v87.2h-37.7v-100.3h-25.2v125.5h62.9v12.4H94.1v-183.3h0ZM518.2,912.3h-4.9v-6.9h-6.9v-6.9h-13.9v-6.9h-6.9v-6.9h-6.9v-6.9h-13.9v-6.9h-6.9v-6.9h-6.9v110.9h-13.9v-6.9h-6.9v-6.9h-13.9v-6.9h-6.9v-6.9h-6.9v-6.9h-13.9v-6.9h-6.9v-6.9h-6.9v-6.9h-13.9v-6.9h-6.9v-6.9h-6.9v-6.9h-13.9v-6.9h-6.9v-6.9h-6.9v-6.9h-13.9v-6.9h-6.9v-6.9h-6.9v110.9h-13.9v-6.9h-6.9v-6.9h-13.9v-6.9h-6.9v-6.9h-6.9v-6.9h-13.9v-6.9h-6.9v-6.9h-6.9v-6.9h-13.9v-6.9h-6.9v-6.9h-6.9v-6.9h-13.9v-6.9h-4.6v-97h4.6v6.9h13.9v6.9h6.9v6.9h6.9v6.9h13.9v6.9h6.9v-57.8h76.2v2.4h6.9v6.9h13.9v6.9h6.9v6.9h6.9v6.9h13.9v6.9h6.9v6.9h6.9v6.9h13.9v6.9h6.9v-57.8h76.2v2.4h6.9v6.9h13.9v6.9h6.9v6.9h6.9v6.9h13.9v6.9h6.9v6.9h4.9v97-.6ZM681.4,769.1H54.5c-3.4,0-6.2-2.8-6.2-6.2v-353.7c0-3.4,2.8-6.2,6.2-6.2h902.8c3.4,0,6.2,2.8,6.2,6.2v266h-23.2v-107.6h-25.2v66.9h-8.2v-16.7h-8.3v-16.7h-8.3v-16.7h-8.4v-16.7h-33.6v107.6h-15.1v-7.1h8.3v-75.4h-8.3v-8.3h-8.4v-8.3h-8.3v-8.4h-58.7v8.4h-8.3v8.3h-8.3v8.3h-8.3v75.4h8.3v7.1h-15.3v-107.6h-25.2v107.6h-10.5c-4.7,0-8.5,3.8-8.5,8.5v85.5l-.3-.2ZM890,643v16.7h8.3v15.5h-24.9v-48.9h8.2v16.7h8.4ZM766.2,659.5v-8.4h-8.3v-41.5h8.3v-8.4h8.4v-8.3h24.9v8.3h8.3v8.4h8.3v41.5h-8.3v8.4h-8.3v8.3h-24.9v-8.3h-8.4ZM1031.3,877.7c0,3.4-2.8,6.2-6.2,6.2h-335.1c-3.4,0-6.2-2.8-6.2-6.2v-23.2h75.3v-25.2h-58.5v-100.3h-16.9v-45.4c0-3.4,2.8-6.2,6.2-6.2h335.1c3.4,0,6.2,2.8,6.2,6.2v194.1h0Z"/>
          <path class="cls-1" d="M855.1,795.9h-8.3v-25.1h-8.3v-25.1h-8.3v-16.7h-33.6v16.7h-8.4v25.1h-8.3v25.1h-8.3v25.1h-8.3v33.6h25.2v-25h49.9v25h25.3v-33.6h-8.4v-25.1h-.2ZM821.5,804.2h-16.5v-24.9h16.5v24.9Z"/>
          <path class="cls-1" d="M961.5,745.7h-8.3v-8.3h-8.3v-8.4h-75.4v125.5h83.7v-8.3h8.3v-8.3h8.4v-42h-8.4v-50.1h0ZM894.7,754.3h33.3v8.3h8.3v8.2h-8.3v8.3h-33.3v-24.9h0ZM944.6,820.9h-8.3v8.3h-41.6v-24.9h41.6v8.3h8.3v8.2h0Z"/>
        </g>
      </g>
    </g>
  </g>
</svg>